<svg width="678" height="507" viewBox="0 0 678 507" fill="none" xmlns="http://www.w3.org/2000/svg">
<path fill-rule="evenodd" clip-rule="evenodd" d="M623.749 1H267.892C252.893 1 238.466 6.54823 227.582 16.5016L18.0131 208.157C-17.5265 240.659 6.32326 298.35 55.2995 298.35H300.071C313.308 298.35 319.754 282.758 310.148 273.973L254.196 222.804C225.38 196.451 244.718 149.675 284.428 149.675H474.551C489.549 149.675 503.977 144.127 514.86 134.173L633.826 25.3763C643.432 16.5921 636.986 1 623.749 1ZM54.2512 506H410.108C425.107 506 439.534 500.452 450.418 490.498L659.987 298.843C695.527 266.341 671.677 208.65 622.701 208.65H377.929C364.692 208.65 358.246 224.242 367.852 233.027L423.804 284.196C452.62 310.549 433.282 357.325 393.572 357.325H203.449C188.451 357.325 174.023 362.873 163.14 372.827L44.1738 481.624C34.5685 490.408 41.0144 506 54.2512 506Z" stroke="#8000FF" stroke-opacity="0.15"/>
</svg>
